<svg width="40" height="35" viewBox="0 0 40 35" fill="none" xmlns="http://www.w3.org/2000/svg">
<g clip-path="url(#clip0_3933_2)">
<path d="M37.0025 4.00371C33.2628 4.21631 25.8298 4.99014 21.2412 7.80381C20.9245 7.99795 20.745 8.34317 20.745 8.7041V33.578C20.745 34.3676 21.6069 34.8666 22.3337 34.5002C27.0547 32.1199 33.8824 31.4705 37.2584 31.2928C38.411 31.2319 39.307 30.3064 39.307 29.1969V6.10235C39.3077 4.8917 38.2595 3.93262 37.0025 4.00371ZM18.0658 7.80381C13.4779 4.99014 6.04492 4.21699 2.30523 4.00371C1.04821 3.93262 0 4.8917 0 6.10235V29.1976C0 30.3077 0.896024 31.2333 2.04864 31.2935C5.42596 31.4712 12.257 32.1213 16.9781 34.5029C17.7028 34.8687 18.562 34.3703 18.562 33.5828V8.6918C18.562 8.33018 18.3832 7.99863 18.0658 7.80381Z" fill="#28A745"/>
</g>
<defs>
<clipPath id="clip0_3933_2">
<rect width="39.3077" height="35" fill="white"/>
</clipPath>
</defs>
</svg>
