<svg aria-hidden="true" style="position:absolute;width:0;height:0;overflow:hidden" xmlns="http://www.w3.org/2000/svg">
  <defs>
    <symbol id="icon-book" viewBox="0 0 32 32">
      <path d="M21.858 6.167v-.075a5.9 5.9 0 1 0-11.799.079v-.004a5.901 5.901 0 0 0 11.8.004v-.004zm-7.277 8.917c-3.646-2.232-9.553-2.845-12.524-3.015-.999-.056-1.832.704-1.832 1.666v13.692c0 .88.712 1.615 1.628 1.662 2.682.141 8.111.656 11.864 2.546.576.29 1.258-.104 1.258-.729V15.784a.816.816 0 0 0-.392-.698l-.004-.002zM29.86 12.07c-2.971.169-8.878.782-12.524 3.015a.832.832 0 0 0-.393.708V30.907c0 .626.684 1.021 1.261.73 3.752-1.888 9.177-2.404 11.86-2.544.917-.048 1.628-.782 1.628-1.663V13.736c0-.96-.833-1.721-1.832-1.665z"/>
    </symbol>
    <symbol id="icon-pencil" viewBox="0 0 32 32">
      <path d="m31.119 8.881-2.882 2.882a.749.749 0 0 1-1.062 0l-6.938-6.937a.75.75 0 0 1 0-1.064l2.882-2.88c.544-.542 1.294-.877 2.122-.877s1.578.335 2.122.877l3.755 3.755c.545.542.882 1.293.882 2.122s-.337 1.58-.882 2.122zM17.763 6.237 1.35 22.65.026 30.243a1.502 1.502 0 0 0 1.747 1.736l-.009.001 7.593-1.331L25.77 14.236a.749.749 0 0 0 0-1.062l-6.936-6.938a.757.757 0 0 0-1.07 0zM7.755 21.244a.87.87 0 0 1 0-1.238l9.626-9.625a.869.869 0 0 1 1.236 0 .87.87 0 0 1 0 1.238l-9.625 9.625a.87.87 0 0 1-1.238 0zM5.499 26.5h3v2.268l-4.031.707-1.944-1.944.706-4.031h2.268v3z"/>
    </symbol>
    <symbol id="icon-university" viewBox="0 0 32 32">
      <path d="M31 8v1.001a.5.5 0 0 1-.5.5H29v.75a.75.75 0 0 1-.75.749H3.749A.75.75 0 0 1 3 10.251v-.75H1.498a.5.5 0 0 1-.5-.5V8a.5.5 0 0 1 .306-.46l.003-.001 14.5-5.501a.49.49 0 0 1 .385.001l-.003-.001 14.502 5.501a.501.501 0 0 1 .309.462zm-1.5 19h-27A1.5 1.5 0 0 0 1 28.499v1a.5.5 0 0 0 .5.5h29.001a.5.5 0 0 0 .5-.5v-1.001a1.5 1.5 0 0 0-1.5-1.499zM6 12v12H3.751a.75.75 0 0 0-.75.75V26h26v-1.25a.75.75 0 0 0-.75-.75h-2.25V12h-4v12h-4V12h-4v12h-4V12h-4z"/>
    </symbol>
  </defs>
</svg>
